<svg xmlns="http://www.w3.org/2000/svg" viewBox="0 0 60 60">
    <defs>
        <style>
            .cls-1 {
                fill: none;
            }

            .cls-2 {
                fill: #fff;
            }
        </style>
    </defs>
    <g id="レイヤー_2" data-name="レイヤー 2">
        <g id="メニュー">
            <rect class="cls-1" width="60" height="60" />
            <path class="cls-2"
                d="M9,43H51a2.831,2.831,0,0,0,3-3V12a2.831,2.831,0,0,0-3-3H9a2.832,2.832,0,0,0-3,3V40A2.832,2.832,0,0,0,9,43Zm2-29H49V38H11Z" />
            <path class="cls-2" d="M2,46v2a3.228,3.228,0,0,0,3,3H55a2.872,2.872,0,0,0,3-3V46Z" />
        </g>
    </g>
</svg>