<svg xmlns="http://www.w3.org/2000/svg" viewBox="0 0 60 60">
    <defs>
        <style>
            .cls-1 {
                fill: none;
            }

            .cls-2 {
                fill: #000066;
            }
        </style>
    </defs>
    <g id="レイヤー_2" data-name="レイヤー 2">
        <g id="コンテンツ">
            <rect class="cls-1" width="60" height="60" />
            <polygon class="cls-2"
                points="44 53 4 53 4 22 19 22 19 7 44 7 44 11 47.826 7.153 47.826 3 19.33 3 3.986 18.585 0 22.633 0 57 47.826 57 47.826 33.166 44 37 44 53" />
            <path class="cls-2"
                d="M59.6,13.667,53.588,7.558a1.343,1.343,0,0,0-1.919,0L26.275,32.328a1.39,1.39,0,0,0-.338.573l-3.072,10.25a1.368,1.368,0,0,0,1.693,1.72l10.417-3.22L59.6,15.616A1.4,1.4,0,0,0,59.6,13.667ZM28.592,41.108l-1.978-2.2,1.371-4.576L31.4,36.2l1.838,3.469Z" />
        </g>
    </g>
</svg>