<svg xmlns="http://www.w3.org/2000/svg" viewBox="0 0 60 60">
    <defs>
        <style>
            .cls-1 {
                fill: none;
            }

            .cls-2 {
                fill: #444;
            }
        </style>
    </defs>
    <g id="レイヤー_2" data-name="レイヤー 2">
        <g id="メニュー">
            <rect class="cls-1" width="60" height="60" />
            <path class="cls-2"
                d="M30.115,8C14.559,8,4,15.914,4,28.226c0,7.575,3.156,13.645,9.253,17.55.407.261.887.3.706,1.051-.727,3.034-1.991,8.439-1.991,8.439a.6.6,0,0,0,.868.663s8.923-5.277,10.114-5.936A13.619,13.619,0,0,1,29.912,48.1C42.25,48.1,56,43.176,56,28.094,56,16.4,46.552,8,30.115,8ZM17.905,32.215a3.095,3.095,0,1,1,3.1-3.094A3.1,3.1,0,0,1,17.905,32.215Zm12.094,0a3.095,3.095,0,1,1,3.1-3.094A3.1,3.1,0,0,1,30,32.215Zm12.1,0a3.095,3.095,0,1,1,3.1-3.094A3.1,3.1,0,0,1,42.1,32.215Z" />
        </g>
    </g>
</svg>