<svg xmlns="http://www.w3.org/2000/svg" viewBox="0 0 60 60"><defs><style>.cls-1{fill:none;}.cls-2{fill:#fff;}</style></defs><g id="レイヤー_2" data-name="レイヤー 2"><g id="メニュー"><rect class="cls-1" width="60" height="60"/><path class="cls-2" d="M29,25H7V43H29ZM26,40H10V28h5v6l3-2,3,2V28h5Z"/><path class="cls-2" d="M31,43H53V25H31Zm3-15h5v6l3-2,3,2V28h5V40H34Z"/><path class="cls-2" d="M41,5H19V23H41ZM38,20H22V8h5v6l3-2,3,2V8h5Z"/><path class="cls-2" d="M49,52V48h6V45H5v3h6v4H5v3H55V52ZM26,52H19V48h7Zm15,0H34V48h7Z"/></g></g></svg>