<svg xmlns="http://www.w3.org/2000/svg" viewBox="0 0 60 60"><defs><style>.cls-1{fill:none;}.cls-2{fill:#fff;}</style></defs><g id="レイヤー_2" data-name="レイヤー 2"><g id="メニュー"><rect class="cls-1" width="60" height="60"/><path class="cls-2" d="M57.072,34.9,32.3,43.03a9.164,9.164,0,0,1,1.9,2.959l23.938-7.854A1.7,1.7,0,1,0,57.072,34.9Z"/><path class="cls-2" d="M26.758,40.226,17.8,12.941A11.354,11.354,0,0,0,8.964,5.3L2,4.077a1.7,1.7,0,0,0-.585,3.356h0L8.378,8.649A7.954,7.954,0,0,1,14.566,14l8.681,26.45A9.247,9.247,0,0,1,26.758,40.226Z"/><path class="cls-2" d="M23.162,42.375a7.5,7.5,0,1,0,9.462,4.788A7.5,7.5,0,0,0,23.162,42.375Zm4.689,8.315A2.637,2.637,0,1,1,28,48.68,2.615,2.615,0,0,1,27.851,50.69Z"/><path class="cls-2" d="M60,30.953l-.354-1.08L50.826,3,20.981,12.793l9.174,27.951ZM48,8l7,21L33,36,26,15Z"/></g></g></svg>