<?xml version="1.0" encoding="utf-8"?>
<!-- Generator: Adobe Illustrator 26.0.2, SVG Export Plug-In . SVG Version: 6.00 Build 0)  -->
<svg version="1.1" id="レイヤー_1" xmlns="http://www.w3.org/2000/svg" xmlns:xlink="http://www.w3.org/1999/xlink" x="0px"
	 y="0px" viewBox="0 0 60 60" style="enable-background:new 0 0 60 60;" xml:space="preserve">
<style type="text/css">
	.st0{fill:none;}
	.st1{fill:#666666;}
</style>
<rect class="st0" width="60" height="60"/>
<g>
	<polygon class="st1" points="41,24 45,24 45,9 32,9 32,13 41,13 	"/>
	<polygon class="st1" points="41,47 32,47 32,51 45,51 45,36 41,36 	"/>
	<path class="st1" d="M58,30l-10-8v4c0,0.3,0,1-1,1h-8c-1,0-1,0.7-1,1v4c0,0.3,0,1,1,1h8c0.3,0,1,0,1,1v4L58,30z"/>
	<path class="st1" d="M27,4C26.7,4,7,9,7,9c-1.1,0.6-1.9,1.7-2,3v36c0.1,1.3,0.9,2.4,2,3c0,0,19.7,5,20,5c1.5,0,3-2,3-3V7
		C29.9,5.4,28.6,4.1,27,4z M25,32c0,0.3,0,1-1,1h-1c-1,0-1-0.7-1-1v-4c0-0.3,0-1,1-1h1c1,0,1,0.7,1,1V32z"/>
</g>
</svg>
