<?xml version="1.0" encoding="utf-8"?>
<!-- Generator: Adobe Illustrator 26.0.2, SVG Export Plug-In . SVG Version: 6.00 Build 0)  -->
<svg version="1.1" id="レイヤー_1" xmlns="http://www.w3.org/2000/svg" xmlns:xlink="http://www.w3.org/1999/xlink" x="0px"
	 y="0px" viewBox="0 0 60 60" style="enable-background:new 0 0 60 60;" xml:space="preserve">
<style type="text/css">
	.st0{fill:none;}
	.st1{fill:#000066;}
</style>
<rect class="st0" width="60" height="60"/>
<path class="st1" d="M52.5,45.5l-9.2-9.2c0,0-0.1-0.1-0.1-0.1c5.6-9.5,2.5-21.8-7-27.5s-21.8-2.5-27.5,7s-2.5,21.8,7,27.5
	c6.3,3.7,14.1,3.7,20.4,0c0,0,0.1,0.1,0.1,0.1l9.2,9.2c2,2,5.1,2,7.1,0S54.5,47.4,52.5,45.5z M13,26c0-7.2,5.8-13,13-13
	s13,5.8,13,13s-5.8,13-13,13C18.8,39,13,33.2,13,26z"/>
</svg>
