<?xml version="1.0" encoding="UTF-8" standalone="no" ?>
<!DOCTYPE svg PUBLIC "-//W3C//DTD SVG 1.1//EN" "http://www.w3.org/Graphics/SVG/1.1/DTD/svg11.dtd">
<svg xmlns="http://www.w3.org/2000/svg" xmlns:xlink="http://www.w3.org/1999/xlink" version="1.1" width="500" height="500" viewBox="0 0 500 500" xml:space="preserve">
<desc>Created with Fabric.js 4.6.0</desc>
<defs>
</defs>
<g transform="matrix(9.27 0 0 1 250.04 472.55)" id="BjKXJnO-v-Eymdah2qAXU"  >
<path style="stroke: rgb(240,105,1); stroke-width: 0; stroke-dasharray: none; stroke-linecap: butt; stroke-dashoffset: 0; stroke-linejoin: miter; stroke-miterlimit: 4; fill: rgb(255,255,255); fill-rule: nonzero; opacity: 1;" vector-effect="non-scaling-stroke"  transform=" translate(0, 0)" d="M -26.91066 -26.91066 L 26.910649999999997 -26.91066 L 26.910649999999997 26.910649999999997 L -26.91066 26.910649999999997 z" stroke-linecap="round" />
</g>
<g transform="matrix(1 0 0 1.93 60.19 410.22)" id="bMgc-Mxeo8m-9nQIUnEgN"  >
<path style="stroke: rgb(251,22,165); stroke-width: 0; stroke-dasharray: none; stroke-linecap: butt; stroke-dashoffset: 0; stroke-linejoin: miter; stroke-miterlimit: 4; fill: rgb(255,255,255); fill-rule: nonzero; opacity: 1;" vector-effect="non-scaling-stroke"  transform=" translate(0, 0)" d="M -46.2963 -36.11488 C -46.2963 -41.73792 -37.502340000000004 -46.2963 -26.65444 -46.2963 L 26.65444 -46.2963 L 26.65444 -46.2963 C 37.502340000000004 -46.2963 46.2963 -41.73792 46.2963 -36.11488 L 46.2963 36.114869999999996 L 46.2963 36.114869999999996 C 46.2963 41.73791 37.502340000000004 46.29629 26.65444 46.29629 L -26.65444 46.29629 L -26.65444 46.29629 C -37.502340000000004 46.29629 -46.2963 41.73791 -46.2963 36.114869999999996 z" stroke-linecap="round" />
</g>
<g transform="matrix(1 0 0 2.84 185.93 368.02)" id="FPHzQwQbZgZJlyK-a2wK5"  >
<path style="stroke: rgb(251,22,165); stroke-width: 0; stroke-dasharray: none; stroke-linecap: butt; stroke-dashoffset: 0; stroke-linejoin: miter; stroke-miterlimit: 4; fill: rgb(255,255,255); fill-rule: nonzero; opacity: 1;" vector-effect="non-scaling-stroke"  transform=" translate(0, 0)" d="M -46.2963 -39.37817 C -46.2963 -43.198949999999996 -37.502340000000004 -46.296299999999995 -26.65444 -46.296299999999995 L 26.65444 -46.296299999999995 L 26.65444 -46.296299999999995 C 37.502340000000004 -46.296299999999995 46.2963 -43.198949999999996 46.2963 -39.37817 L 46.2963 39.37817 L 46.2963 39.37817 C 46.2963 43.198949999999996 37.502340000000004 46.296299999999995 26.65444 46.296299999999995 L -26.65444 46.296299999999995 L -26.65444 46.296299999999995 C -37.502340000000004 46.296299999999995 -46.2963 43.198949999999996 -46.2963 39.37817 z" stroke-linecap="round" />
</g>
<g transform="matrix(1 0 0 3.72 313.52 327.35)" id="GtXI_b8XJxm9tPTtLMmgN"  >
<path style="stroke: rgb(251,22,165); stroke-width: 0; stroke-dasharray: none; stroke-linecap: butt; stroke-dashoffset: 0; stroke-linejoin: miter; stroke-miterlimit: 4; fill: rgb(255,255,255); fill-rule: nonzero; opacity: 1;" vector-effect="non-scaling-stroke"  transform=" translate(0, 0)" d="M -46.2963 -41.01738 C -46.2963 -43.932840000000006 -37.502340000000004 -46.29629 -26.65444 -46.29629 L 26.65444 -46.29629 L 26.65444 -46.29629 C 37.502340000000004 -46.29629 46.2963 -43.93284 46.2963 -41.01738 L 46.2963 41.01738999999999 L 46.2963 41.01738999999999 C 46.2963 43.932849999999995 37.502340000000004 46.29629999999999 26.65444 46.29629999999999 L -26.65444 46.29629999999999 L -26.65444 46.29629999999999 C -37.502340000000004 46.29629999999999 -46.2963 43.93284999999999 -46.2963 41.01738999999999 z" stroke-linecap="round" />
</g>
<g transform="matrix(1 0 0 4.74 434.63 280.13)" id="ZjZxx6XbpSTnEzdANpB7f"  >
<path style="stroke: rgb(251,22,165); stroke-width: 0; stroke-dasharray: none; stroke-linecap: butt; stroke-dashoffset: 0; stroke-linejoin: miter; stroke-miterlimit: 4; fill: rgb(255,255,255); fill-rule: nonzero; opacity: 1;" vector-effect="non-scaling-stroke"  transform=" translate(0, 0)" d="M -46.2963 -42.15316 C -46.2963 -44.44135 -37.502340000000004 -46.2963 -26.65444 -46.2963 L 26.65444 -46.2963 L 26.65444 -46.2963 C 37.502340000000004 -46.2963 46.2963 -44.44135 46.2963 -42.15316 L 46.2963 42.15315 L 46.2963 42.15315 C 46.2963 44.44134 37.502340000000004 46.29629 26.65444 46.29629 L -26.65444 46.29629 L -26.65444 46.29629 C -37.502340000000004 46.29629 -46.2963 44.44134 -46.2963 42.15315 z" stroke-linecap="round" />
</g>
<g transform="matrix(3.23 -2.26 0.79 1.13 240.15 120.79)" id="Dqt5TV-zKAdQWk-BD7zRJ"  >
<path style="stroke: none; stroke-width: 0; stroke-dasharray: none; stroke-linecap: butt; stroke-dashoffset: 0; stroke-linejoin: miter; stroke-miterlimit: 4; fill: rgb(255,255,255); fill-rule: nonzero; opacity: 1;" vector-effect="non-scaling-stroke"  transform=" translate(0, 0)" d="M 13.33463 33.60157 L 40 -4.415949999999995 L 8.975480000000001 -33.601569999999995 L 12.518160000000002 -11.418969999999995 L -40 -16.310949999999995 L -40 7.536050000000007 L 14.44621 7.563770000000007 z" stroke-linecap="round" />
</g>


</svg>