<svg xmlns="http://www.w3.org/2000/svg" viewBox="0 0 60 60"><defs><style>.cls-1,.cls-2{fill:none;}.cls-2{stroke:#444;stroke-linecap:round;stroke-linejoin:round;stroke-width:2px;}</style></defs><g id="レイヤー_2" data-name="レイヤー 2"><g id="メニュー"><rect class="cls-1" width="60" height="60"/><polygon class="cls-2" points="56 52.045 53.077 55 45.572 47.414 48.542 44.507 56 52.045 56 52.045"/><path class="cls-2" d="M39.845,26.621a10.9,10.9,0,1,1-10.78,10.9,10.84,10.84,0,0,1,10.78-10.9Z"/><path class="cls-2" d="M39.845,30.379a7.1,7.1,0,0,1,7.063,7.139"/><polyline class="cls-2" points="49.214 27.143 49.214 14.933 35.476 7 21.738 14.933 8 7 8 15.487 8 23.974 8 32.461 8 40.948 21.738 48.881 27.817 45.371"/><line class="cls-2" x1="21.738" y1="48.881" x2="21.738" y2="14.933"/><line class="cls-2" x1="35.494" y1="23.073" x2="35.494" y2="7.153"/></g></g></svg>