<svg xmlns="http://www.w3.org/2000/svg" viewBox="0 0 60 60">
    <defs>
        <style>
            .cls-1,
            .cls-2 {
                fill: none;
            }

            .cls-2 {
                stroke: #444;
                stroke-linecap: round;
                stroke-linejoin: round;
                stroke-width: 3px;
            }
        </style>
    </defs>
    <g id="レイヤー_2" data-name="レイヤー 2">
        <g id="メニュー">
            <rect class="cls-1" width="60" height="60" />
            <polygon class="cls-2" points="8 13.018 52 13.018 52 50 8 50 8 13.018 8 13.018" />
            <line class="cls-2" x1="16.602" y1="10" x2="16.602" y2="16.299" />
            <line class="cls-2" x1="25.534" y1="10" x2="25.534" y2="16.299" />
            <line class="cls-2" x1="34.466" y1="10" x2="34.466" y2="16.299" />
            <line class="cls-2" x1="43.398" y1="10" x2="43.398" y2="16.299" />
            <line class="cls-2" x1="15.895" y1="24.721" x2="15.895" y2="26.305" />
            <line class="cls-2" x1="22.957" y1="24.721" x2="22.957" y2="26.305" />
            <line class="cls-2" x1="30.02" y1="24.721" x2="30.02" y2="26.305" />
            <line class="cls-2" x1="37.082" y1="24.721" x2="37.082" y2="26.305" />
            <line class="cls-2" x1="15.895" y1="40.685" x2="15.895" y2="42.293" />
            <line class="cls-2" x1="22.957" y1="40.685" x2="22.957" y2="42.293" />
            <line class="cls-2" x1="30.02" y1="40.685" x2="30.02" y2="42.293" />
            <line class="cls-2" x1="44.105" y1="24.696" x2="44.105" y2="26.279" />
            <line class="cls-2" x1="15.895" y1="32.698" x2="15.895" y2="34.307" />
            <path class="cls-2"
                d="M35.455,30.664h3.073a1.3,1.3,0,0,1,1.283,1.313v3.13a1.3,1.3,0,0,1-1.283,1.313H35.455a1.3,1.3,0,0,1-1.283-1.313v-3.13a1.3,1.3,0,0,1,1.283-1.313Z" />
            <line class="cls-2" x1="44.104" y1="32.698" x2="44.104" y2="34.307" />
            <line class="cls-2" x1="29.979" y1="32.698" x2="29.979" y2="34.307" />
            <line class="cls-2" x1="22.917" y1="32.698" x2="22.917" y2="34.307" />
        </g>
    </g>
</svg>