<?xml version="1.0" encoding="UTF-8" standalone="no" ?>
<!DOCTYPE svg PUBLIC "-//W3C//DTD SVG 1.1//EN" "http://www.w3.org/Graphics/SVG/1.1/DTD/svg11.dtd">
<svg xmlns="http://www.w3.org/2000/svg" xmlns:xlink="http://www.w3.org/1999/xlink" version="1.1" width="500" height="500" viewBox="0 0 500 500" xml:space="preserve">
<desc>Created with Fabric.js 4.6.0</desc>
<defs>
</defs>
<g transform="matrix(1.97 0 0 0.24 250 469.44)" id="twOsHdkLgR1TBVMgyDGsn"  >
<path style="stroke: rgb(199,135,201); stroke-width: 0; stroke-dasharray: none; stroke-linecap: butt; stroke-dashoffset: 0; stroke-linejoin: miter; stroke-miterlimit: 4; fill: rgb(0,0,0); fill-rule: nonzero; opacity: 1;" vector-effect="non-scaling-stroke"  transform=" translate(0, 0)" d="M -126.48009 -126.48009 L 126.48008 -126.48009 L 126.48008 -36.97819 L 126.48008 -36.97819 C 126.48008 53.29732 117.67859 126.48008 106.8214 126.48008 L -108.22988 126.48008 L -108.22988 126.48008 C -118.30919 126.48008 -126.48008999999999 58.54057 -126.48008999999999 -25.267070000000004 z" stroke-linecap="round" />
</g>
<g transform="matrix(0 0.65 -0.33 0 41.94 416.95)" id="N1qG3MprpJrNbo7uGJFaA"  >
<path style="stroke: rgb(199,135,201); stroke-width: 0; stroke-dasharray: none; stroke-linecap: butt; stroke-dashoffset: 0; stroke-linejoin: miter; stroke-miterlimit: 4; fill: rgb(0,0,0); fill-rule: nonzero; opacity: 1;" vector-effect="non-scaling-stroke"  transform=" translate(0, 0)" d="M -126.48009 -126.48009 L 126.48008 -126.48009 L 126.48008 13.659329999999997 L 126.48008 13.659329999999997 C 126.48008 75.96851 101.13898 126.48009 69.87915000000001 126.48009 L -126.4801 126.48009 z" stroke-linecap="round" />
</g>
<g transform="matrix(0 0.92 -0.47 0 250 116.89)" id="kkoeQmuH7P5g_vHnByfy5"  >
<path style="stroke: rgb(199,135,201); stroke-width: 0; stroke-dasharray: none; stroke-linecap: butt; stroke-dashoffset: 0; stroke-linejoin: miter; stroke-miterlimit: 4; fill: rgb(0,0,0); fill-rule: nonzero; opacity: 1;" vector-effect="non-scaling-stroke"  transform=" translate(0, 0)" d="M -126.48009 -126.48009 L 126.48008 -126.48009 L 126.48008 126.48008 L -126.48009 126.48008 z" stroke-linecap="round" />
</g>
<g transform="matrix(-2.9 0 0 -1.85 250 307.75)" id="09b2TJgElo3EkWlSDeXiO"  >
<path style="stroke: none; stroke-width: 1; stroke-dasharray: none; stroke-linecap: butt; stroke-dashoffset: 0; stroke-linejoin: miter; stroke-miterlimit: 4; fill: rgb(0,0,0); fill-rule: nonzero; opacity: 1;" vector-effect="non-scaling-stroke"  transform=" translate(-40, -40)" d="M 60 40 L 80 80 L 40 80 L 0 80 L 20 40 L 40 0 L 60 40 z" stroke-linecap="round" />
</g>
<g transform="matrix(0 0.65 0.33 0 457.71 411.68)" id="zFckKgbSqXj8bSZbnyI_J"  >
<path style="stroke: rgb(199,135,201); stroke-width: 0; stroke-dasharray: none; stroke-linecap: butt; stroke-dashoffset: 0; stroke-linejoin: miter; stroke-miterlimit: 4; fill: rgb(0,0,0); fill-rule: nonzero; opacity: 1;" vector-effect="non-scaling-stroke"  transform=" translate(0, 0)" d="M -126.48009 -126.48009 L 126.48008 -126.48009 L 126.48008 13.659329999999997 L 126.48008 13.659329999999997 C 126.48008 75.96851 101.13898 126.48009 69.87915000000001 126.48009 L -126.4801 126.48009 z" stroke-linecap="round" />
</g>
</svg>