<svg xmlns="http://www.w3.org/2000/svg" viewBox="0 0 100 100">
  <defs>
    <style>
      .cls-1 {
        fill: #fff;
      }

      .cls-2 {
        fill: none;
      }
    </style>
  </defs>
  <g id="レイヤー_2" data-name="レイヤー 2">
    <g id="レイヤー_1-2" data-name="レイヤー 1">
      <path class="cls-1" d="M64,43.393a2.539,2.539,0,0,1-.8,1.844,2.822,2.822,0,0,1-3.859,0L52.724,38.9,50,36.25,47.276,38.9l-6.632,6.337a2.809,2.809,0,0,1-3.849,0,2.535,2.535,0,0,1,0-3.687L48.071,30.758a2.834,2.834,0,0,1,3.858,0L63.205,41.55A2.521,2.521,0,0,1,64,43.393Z"/>
      <g>
        <path class="cls-1" d="M19.5,53.97h2.03a6.707,6.707,0,0,1,2.376.3,2.426,2.426,0,0,1,1.148.985,3.033,3.033,0,0,1,.421,1.63,2.737,2.737,0,0,1-.551,1.75,2.847,2.847,0,0,1-1.493.971,8.585,8.585,0,0,1-2.017.157v4.259H19.5ZM21.412,57.9h.609a3.275,3.275,0,0,0,1-.1.882.882,0,0,0,.44-.34.992.992,0,0,0,.161-.572.914.914,0,0,0-.451-.85,2.566,2.566,0,0,0-1.217-.2h-.54Z"/>
        <path class="cls-1" d="M32.63,56.588H34.5v7.438H32.63V63.24a3.654,3.654,0,0,1-1.1.748,3.062,3.062,0,0,1-1.192.229A3.31,3.31,0,0,1,27.85,63.1,3.9,3.9,0,0,1,26.8,60.321,3.994,3.994,0,0,1,27.816,57.5a3.242,3.242,0,0,1,2.472-1.1,3.132,3.132,0,0,1,1.256.253,3.442,3.442,0,0,1,1.086.759ZM30.668,58.12a1.889,1.889,0,0,0-1.438.611,2.443,2.443,0,0,0,.011,3.155,1.885,1.885,0,0,0,1.434.622,1.919,1.919,0,0,0,1.458-.612,2.233,2.233,0,0,0,.579-1.6,2.173,2.173,0,0,0-.579-1.572A1.947,1.947,0,0,0,30.668,58.12Z"/>
        <path class="cls-1" d="M41.879,56.588h1.859v6.371a4.215,4.215,0,0,1-.759,2.776,3.8,3.8,0,0,1-3.069,1.2,5.386,5.386,0,0,1-1.839-.273,3.326,3.326,0,0,1-1.258-.8,3.277,3.277,0,0,1-.758-1.288h2.057a1.7,1.7,0,0,0,.7.475,2.922,2.922,0,0,0,1.019.16,2.685,2.685,0,0,0,1.21-.232,1.407,1.407,0,0,0,.646-.6,3.056,3.056,0,0,0,.188-1.272,3.1,3.1,0,0,1-1.032.708,3.293,3.293,0,0,1-1.224.215,3.363,3.363,0,0,1-2.529-1.08,4.193,4.193,0,0,1,.061-5.578,3.264,3.264,0,0,1,2.366-.971,3.148,3.148,0,0,1,1.213.236,3.85,3.85,0,0,1,1.145.776ZM39.944,58.14a1.944,1.944,0,0,0-1.456.591,2.051,2.051,0,0,0-.574,1.487,2.079,2.079,0,0,0,.588,1.525,1.992,1.992,0,0,0,1.477.594,1.909,1.909,0,0,0,1.432-.581,2.094,2.094,0,0,0,.564-1.524,2.069,2.069,0,0,0-.568-1.511A1.955,1.955,0,0,0,39.944,58.14Z"/>
        <path class="cls-1" d="M53.076,60.847H47.081a1.991,1.991,0,0,0,.694,1.261,2.172,2.172,0,0,0,1.439.469,2.489,2.489,0,0,0,1.8-.732l1.572.738a3.7,3.7,0,0,1-1.408,1.234,4.4,4.4,0,0,1-1.948.4,3.847,3.847,0,0,1-2.851-1.1,3.755,3.755,0,0,1-1.1-2.765,3.883,3.883,0,0,1,1.1-2.827A3.685,3.685,0,0,1,49.125,56.4a3.822,3.822,0,0,1,2.857,1.124,4.065,4.065,0,0,1,1.1,2.971Zm-1.866-1.47a1.865,1.865,0,0,0-.73-1.011,2.109,2.109,0,0,0-1.263-.39,2.231,2.231,0,0,0-1.369.438,2.439,2.439,0,0,0-.685.963Z"/>
        <path class="cls-1" d="M57.718,53.97h5.557v1.887H61.443v8.169H59.5V55.857H57.718Z"/>
        <path class="cls-1" d="M67.876,56.4a3.952,3.952,0,0,1,1.979.526A3.8,3.8,0,0,1,71.3,58.352,3.843,3.843,0,0,1,71.82,60.3a3.9,3.9,0,0,1-.523,1.969A3.762,3.762,0,0,1,69.872,63.7a3.936,3.936,0,0,1-1.989.516,3.708,3.708,0,0,1-2.731-1.138,3.943,3.943,0,0,1,.147-5.67A3.731,3.731,0,0,1,67.876,56.4Zm.031,1.757a1.92,1.92,0,0,0-1.449.6,2.15,2.15,0,0,0-.578,1.548,2.181,2.181,0,0,0,.572,1.572,1.907,1.907,0,0,0,1.448.6,1.936,1.936,0,0,0,1.458-.608,2.4,2.4,0,0,0,.011-3.121A1.939,1.939,0,0,0,67.907,58.154Z"/>
        <path class="cls-1" d="M75.2,56.588v.821a3.529,3.529,0,0,1,1.094-.759,3.142,3.142,0,0,1,1.258-.253,3.245,3.245,0,0,1,2.474,1.1,3.986,3.986,0,0,1,1.019,2.823A3.9,3.9,0,0,1,79.989,63.1a3.313,3.313,0,0,1-2.5,1.117,3.092,3.092,0,0,1-1.2-.229,3.647,3.647,0,0,1-1.1-.748v3.507H73.345V56.588Zm1.962,1.532a1.948,1.948,0,0,0-1.463.6,2.171,2.171,0,0,0-.581,1.572,2.23,2.23,0,0,0,.581,1.6,1.928,1.928,0,0,0,1.463.612,1.9,1.9,0,0,0,1.439-.622,2.435,2.435,0,0,0,.01-3.155A1.9,1.9,0,0,0,77.159,58.12Z"/>
      </g>
      <rect class="cls-2" width="100" height="100"/>
    </g>
  </g>
</svg>
